<?xml version="1.0" standalone="no"?>
<!DOCTYPE svg PUBLIC "-//W3C//DTD SVG 20010904//EN"
 "http://www.w3.org/TR/2001/REC-SVG-20010904/DTD/svg10.dtd">
<svg version="1.0" xmlns="http://www.w3.org/2000/svg"
 width="260.000000pt" height="260.000000pt" viewBox="0 0 260.000000 260.000000"
 preserveAspectRatio="xMidYMid meet">
<metadata>
Created by potrace 1.11, written by Peter Selinger 2001-2013
</metadata>
<g transform="translate(0.000000,260.000000) scale(0.100000,-0.100000)"
fill="#000000" stroke="none">
<path d="M1212 2013 c-81 -70 -196 -170 -257 -222 -60 -52 -127 -110 -148
-130 l-38 -36 -277 0 c-152 0 -282 -4 -289 -8 -9 -5 -11 -94 -10 -345 l2 -337
279 -3 279 -2 41 -34 c23 -19 55 -46 71 -61 211 -185 489 -421 501 -423 17 -4
16 -103 15 878 0 942 2 850 -11 850 -6 0 -77 -57 -158 -127z"/>
<path d="M2120 2120 c0 -6 17 -34 38 -63 138 -190 225 -417 249 -647 32 -320
-49 -636 -231 -900 -47 -68 -59 -100 -37 -100 14 0 117 154 158 235 74 147
125 314 140 455 9 86 9 270 0 343 -28 226 -124 461 -267 655 -23 31 -50 43
-50 22z"/>
<path d="M1897 1897 c-2 -7 4 -23 13 -37 89 -127 162 -316 178 -455 27 -253
-17 -458 -145 -672 -45 -75 -51 -93 -30 -93 16 0 78 97 122 192 61 133 86 244
90 403 2 77 0 158 -5 180 -5 22 -11 57 -14 77 -14 93 -76 243 -145 350 -37 59
-57 76 -64 55z"/>
<path d="M1650 1648 c0 -7 10 -31 23 -53 59 -104 87 -226 82 -355 -5 -103 -24
-180 -70 -273 -25 -52 -32 -73 -23 -78 14 -9 31 12 63 83 65 144 82 318 45
463 -26 101 -84 225 -105 225 -8 0 -15 -6 -15 -12z"/>
</g>
</svg>
